Coordinates
version=1
nRows=10
nColumns=40
inDegrees=yes

Units are S.I. units (second, meters, Newtons, ...)
Angles are in degrees.

endheader
time	pelvis_tilt	pelvis_list	pelvis_rotation	pelvis_tx	pelvis_ty	pelvis_tz	hip_flexion_r	hip_adduction_r	hip_rotation_r	knee_angle_r	knee_angle_r_beta	ankle_angle_r	subtalar_angle_r	mtp_angle_r	hip_flexion_l	hip_adduction_l	hip_rotation_l	knee_angle_l	knee_angle_l_beta	ankle_angle_l	subtalar_angle_l	mtp_angle_l	lumbar_extension	lumbar_bending	lumbar_rotation	arm_flex_r	arm_add_r	arm_rot_r	elbow_flex_r	pro_sup_r	wrist_flex_r	wrist_dev_r	arm_flex_l	arm_add_l	arm_rot_l	elbow_flex_l	pro_sup_l	wrist_flex_l	wrist_dev_l
     41.05250000	     -5.92007856	     -4.51037094	     -4.15645047	      1.04312548	      0.93310750	      0.42983072	     37.44407638	     -6.57807771	     -7.17456552	     50.98007573	     50.98007573	      4.11271969	    -11.57142386	      1.31076791	     12.98492007	     -5.97112672	     -8.72633043	     17.90311941	     17.90311941	     12.52290800	     -5.64374455	     -5.95899231	    -12.72942857	      2.41435231	      0.99693075	      0.09787218	    -15.03928875	     -5.62299482	     55.08187351	     46.24787638	      0.00000000	      0.00000000	     19.11670382	    -17.78851903	      3.21670259	     41.87537615	     45.98373953	      0.00000000	      0.00000000
     41.06385714	     -5.87406936	     -4.59356655	     -4.36271559	      1.04239489	      0.93271701	      0.43037730	     37.20403591	     -6.06995542	     -7.11024474	     46.71180372	     46.71180372	      3.84492350	    -10.31110904	      1.69200980	     12.36742651	     -6.02418972	     -8.66013988	     17.87107175	     17.87107175	     12.85822981	     -6.03687571	     -6.01731871	    -12.90188259	      2.64417368	      1.45834999	     -1.57855915	    -15.56828409	     -5.86718019	     52.58441067	     46.32799962	      0.00000000	      0.00000000	     20.42151847	    -17.92147326	      3.03972323	     43.39721737	     46.03511018	      0.00000000	      0.00000000
     41.07521429	     -5.91575036	     -4.46035855	     -4.66302032	      1.04173639	      0.93208026	      0.43111498	     37.00434765	     -5.69539607	     -6.99227681	     42.32387206	     42.32387206	      3.36954239	     -8.87833078	      1.44783275	     11.75155058	     -5.81680227	     -8.49060533	     17.66919840	     17.66919840	     13.10288133	     -6.73115596	     -5.93888401	    -12.88899137	      2.52620639	      1.89605542	     -1.89585365	    -15.38174907	     -7.33678370	     46.25876589	     46.58809286	      0.00000000	      0.00000000	     21.26279472	    -18.21927586	      3.00132514	     46.28865636	     46.09407960	      0.00000000	      0.00000000
     41.08657143	     -5.94401449	     -4.56280303	     -4.87259836	      1.04111705	      0.93150211	      0.43199579	     36.51760090	     -5.09594829	     -7.21482293	     37.63740395	     37.63740395	      2.97434261	     -7.13091411	      1.95005088	     11.23777673	     -5.93209205	     -8.43872582	     17.71314807	     17.71314807	     13.44674767	     -7.03247800	     -6.01466090	    -12.95768762	      2.78785195	      1.95133546	     -3.12459262	    -15.66651804	     -7.75033257	     43.96744725	     46.67507874	      0.00000000	      0.00000000	     22.16378309	    -18.57659244	      2.79012822	     47.74443852	     46.14298960	      0.00000000	      0.00000000
     41.09792857	     -6.02060414	     -4.40749939	     -5.14966545	      1.04072398	      0.93071707	      0.43295915	     36.02670470	     -4.72313379	     -7.50359437	     32.92963380	     32.92963380	      2.33290389	     -4.93896081	      1.36345821	     10.65407222	     -5.73053671	     -8.37222840	     17.54591891	     17.54591891	     13.79050313	     -7.51564805	     -5.83359730	    -12.85055966	      2.64936304	      1.54836532	     -1.63040369	    -15.00173645	    -10.49596623	     35.28578980	     47.09795965	      0.00000000	      0.00000000	     21.68408437	    -19.61479599	      2.38228191	     52.38852655	     46.26274706	      0.00000000	      0.00000000
     41.10928571	     -6.06337337	     -4.37114594	     -5.37931256	      1.04050222	      0.92990461	      0.43416844	     35.37469865	     -4.20041971	     -8.02827326	     28.27392306	     28.27392306	      1.94943059	     -2.43462623	      1.87951788	     10.09773723	     -5.73180069	     -8.50993778	     17.53442505	     17.53442505	     14.22313301	     -7.59364844	     -5.80364342	    -12.85506445	      2.69545746	      1.32442702	     -1.62543979	    -14.89643049	    -12.82633142	     30.78548909	     47.33710296	      0.00000000	      0.00000000	     21.63175547	    -20.10851918	      1.17766589	     55.81502467	     46.46651102	      0.00000000	      0.00000000
     41.12064286	     -6.06373905	     -4.24597302	     -5.63125151	      1.04048559	      0.92899604	      0.43543142	     34.67541786	     -3.74108952	     -8.65133225	     23.86737201	     23.86737201	      1.80955668	      0.50488525	      2.97820969	      9.44278313	     -5.62319893	     -8.67058853	     17.45750259	     17.45750259	     14.64833798	     -7.64414057	     -5.88105707	    -12.87074481	      2.65469720	      1.95191567	     -2.94196046	    -15.15455789	    -13.47755628	     28.70625531	     47.42961062	      0.00000000	      0.00000000	     22.48573904	    -19.93832547	      0.78440969	     58.07871383	     46.55593708	      0.00000000	      0.00000000
     41.13200000	     -6.05334280	     -4.20613882	     -5.83917012	      1.04070685	      0.92804395	      0.43692527	     33.86797848	     -3.10585943	     -9.23905904	     19.64036981	     19.64036981	      1.59804739	      3.03682480	      4.22878586	      8.77351465	     -5.61986700	     -8.79982281	     17.40470501	     17.40470501	     15.06484123	     -7.71904182	     -5.99302679	    -12.86032660	      2.72257188	      2.31036909	     -4.25369624	    -15.44111106	    -13.83518991	     27.26220909	     47.49538987	      0.00000000	      0.00000000	     23.19438999	    -19.98641585	      0.48875239	     59.94732902	     46.61860935	      0.00000000	      0.00000000
     41.14335714	     -6.02760383	     -4.01954993	     -6.05883560	      1.04120282	      0.92703177	      0.43846716	     33.39313977	     -2.75971229	    -10.21349654	     16.55181173	     16.55181173	      2.88795641	      6.33675205	      9.03493682	      8.00180598	     -5.45405886	     -9.07635794	     17.21982772	     17.21982772	     15.57832430	     -7.54114994	     -5.92854007	    -12.83965616	      2.55425144	      1.77076613	     -3.52145571	    -15.25849852	    -17.15438351	     22.75304013	     47.87331342	      0.00000000	      0.00000000	     22.15251309	    -20.53082510	     -1.31209243	     64.98215305	     46.91423005	      0.00000000	      0.00000000
     41.15471429	     -6.05195726	     -3.84535597	     -6.23943030	      1.04191268	      0.92582937	      0.44023620	     32.77629830	     -2.24214649	    -10.75760119	     13.43573953	     13.43573953	      2.78633418	      8.36280021	      9.96366520	      7.28137171	     -5.30897425	     -9.27679715	     17.03034119	     17.03034119	     15.98634954	     -7.48992291	     -6.06549021	    -12.65844276	      2.45044279	      2.19492826	     -4.90717516	    -15.37834688	    -17.33621504	     22.02748590	     47.90257094	      0.00000000	      0.00000000	     22.88294937	    -20.36898340	     -1.49295426	     66.60539085	     46.96385114	      0.00000000	      0.00000000
